<svg xmlns="http://www.w3.org/2000/svg" viewBox="0 0 17 17.5">
  <rect x="2.5" y="0" width="2" height="2" rx="0.3" fill="#da7b28"/>
  <rect x="5" y="0" width="2" height="2" rx="0.3" fill="#da7b28"/>
  <rect x="7.5" y="0" width="2" height="2" rx="0.3" fill="#da7b28"/>
  <rect x="10" y="0" width="2" height="2" rx="0.3" fill="#da7b28"/>
  <rect x="12.5" y="0" width="2" height="2" rx="0.3" fill="#da7b28"/>
  <rect x="0" y="2.5" width="2" height="2" rx="0.3" fill="#da7b28"/>
  <rect x="2.5" y="2.5" width="2" height="2" rx="0.3" fill="#da7b28"/>
  <rect x="7.5" y="2.5" width="2" height="2" rx="0.3" fill="#da7b28"/>
  <rect x="12.5" y="2.5" width="2" height="2" rx="0.3" fill="#da7b28"/>
  <rect x="15" y="2.5" width="2" height="2" rx="0.3" fill="#da7b28"/>
  <rect x="0" y="5" width="2" height="2" rx="0.3" fill="#da7b28"/>
  <rect x="2.5" y="5" width="2" height="2" rx="0.3" fill="#da7b28"/>
  <rect x="5" y="5" width="2" height="2" rx="0.3" fill="#da7b28"/>
  <rect x="7.5" y="5" width="2" height="2" rx="0.3" fill="#da7b28"/>
  <rect x="10" y="5" width="2" height="2" rx="0.3" fill="#da7b28"/>
  <rect x="12.5" y="5" width="2" height="2" rx="0.3" fill="#da7b28"/>
  <rect x="15" y="5" width="2" height="2" rx="0.3" fill="#da7b28"/>
  <rect x="2.5" y="7.5" width="2" height="2" rx="0.3" fill="#da7b28"/>
  <rect x="12.5" y="7.5" width="2" height="2" rx="0.3" fill="#da7b28"/>
  <rect x="2.5" y="10" width="2" height="2" rx="0.3" fill="#da7b28"/>
  <rect x="5" y="10" width="2" height="2" rx="0.3" fill="#da7b28"/>
  <rect x="7.5" y="10" width="2" height="2" rx="0.3" fill="#da7b28"/>
  <rect x="10" y="10" width="2" height="2" rx="0.3" fill="#da7b28"/>
  <rect x="12.5" y="10" width="2" height="2" rx="0.3" fill="#da7b28"/>
  <rect x="2.5" y="12.5" width="2" height="2" rx="0.3" fill="#da7b28"/>
  <rect x="12.5" y="12.5" width="2" height="2" rx="0.3" fill="#da7b28"/>
</svg>
