<svg xmlns="http://www.w3.org/2000/svg" viewBox="0 0 240.0 15.0" role="img" aria-label="HarnessML">
  <rect x="0.0" y="0.0" width="2" height="2" rx="0.3" fill="#2d2518"/>
  <rect x="2.5" y="0.0" width="2" height="2" rx="0.3" fill="#2d2518"/>
  <rect x="12.5" y="0.0" width="2" height="2" rx="0.3" fill="#2d2518"/>
  <rect x="15.0" y="0.0" width="2" height="2" rx="0.3" fill="#2d2518"/>
  <rect x="22.5" y="0.0" width="2" height="2" rx="0.3" fill="#2d2518"/>
  <rect x="25.0" y="0.0" width="2" height="2" rx="0.3" fill="#2d2518"/>
  <rect x="27.5" y="0.0" width="2" height="2" rx="0.3" fill="#2d2518"/>
  <rect x="30.0" y="0.0" width="2" height="2" rx="0.3" fill="#2d2518"/>
  <rect x="32.5" y="0.0" width="2" height="2" rx="0.3" fill="#2d2518"/>
  <rect x="40.0" y="0.0" width="2" height="2" rx="0.3" fill="#2d2518"/>
  <rect x="42.5" y="0.0" width="2" height="2" rx="0.3" fill="#2d2518"/>
  <rect x="45.0" y="0.0" width="2" height="2" rx="0.3" fill="#2d2518"/>
  <rect x="47.5" y="0.0" width="2" height="2" rx="0.3" fill="#2d2518"/>
  <rect x="50.0" y="0.0" width="2" height="2" rx="0.3" fill="#2d2518"/>
  <rect x="52.5" y="0.0" width="2" height="2" rx="0.3" fill="#2d2518"/>
  <rect x="60.0" y="0.0" width="2" height="2" rx="0.3" fill="#2d2518"/>
  <rect x="62.5" y="0.0" width="2" height="2" rx="0.3" fill="#2d2518"/>
  <rect x="65.0" y="0.0" width="2" height="2" rx="0.3" fill="#2d2518"/>
  <rect x="77.5" y="0.0" width="2" height="2" rx="0.3" fill="#2d2518"/>
  <rect x="80.0" y="0.0" width="2" height="2" rx="0.3" fill="#2d2518"/>
  <rect x="85.0" y="0.0" width="2" height="2" rx="0.3" fill="#2d2518"/>
  <rect x="87.5" y="0.0" width="2" height="2" rx="0.3" fill="#2d2518"/>
  <rect x="90.0" y="0.0" width="2" height="2" rx="0.3" fill="#2d2518"/>
  <rect x="92.5" y="0.0" width="2" height="2" rx="0.3" fill="#2d2518"/>
  <rect x="95.0" y="0.0" width="2" height="2" rx="0.3" fill="#2d2518"/>
  <rect x="97.5" y="0.0" width="2" height="2" rx="0.3" fill="#2d2518"/>
  <rect x="100.0" y="0.0" width="2" height="2" rx="0.3" fill="#2d2518"/>
  <rect x="105.0" y="0.0" width="2" height="2" rx="0.3" fill="#2d2518"/>
  <rect x="107.5" y="0.0" width="2" height="2" rx="0.3" fill="#2d2518"/>
  <rect x="110.0" y="0.0" width="2" height="2" rx="0.3" fill="#2d2518"/>
  <rect x="112.5" y="0.0" width="2" height="2" rx="0.3" fill="#2d2518"/>
  <rect x="115.0" y="0.0" width="2" height="2" rx="0.3" fill="#2d2518"/>
  <rect x="117.5" y="0.0" width="2" height="2" rx="0.3" fill="#2d2518"/>
  <rect x="120.0" y="0.0" width="2" height="2" rx="0.3" fill="#2d2518"/>
  <rect x="125.0" y="0.0" width="2" height="2" rx="0.3" fill="#2d2518"/>
  <rect x="127.5" y="0.0" width="2" height="2" rx="0.3" fill="#2d2518"/>
  <rect x="130.0" y="0.0" width="2" height="2" rx="0.3" fill="#2d2518"/>
  <rect x="132.5" y="0.0" width="2" height="2" rx="0.3" fill="#2d2518"/>
  <rect x="135.0" y="0.0" width="2" height="2" rx="0.3" fill="#2d2518"/>
  <rect x="137.5" y="0.0" width="2" height="2" rx="0.3" fill="#2d2518"/>
  <rect x="140.0" y="0.0" width="2" height="2" rx="0.3" fill="#2d2518"/>
  <rect x="155.0" y="0.0" width="2" height="2" rx="0.3" fill="#2d2518"/>
  <rect x="157.5" y="0.0" width="2" height="2" rx="0.3" fill="#2d2518"/>
  <rect x="160.0" y="0.0" width="2" height="2" rx="0.3" fill="#2d2518"/>
  <rect x="172.5" y="0.0" width="2" height="2" rx="0.3" fill="#2d2518"/>
  <rect x="175.0" y="0.0" width="2" height="2" rx="0.3" fill="#2d2518"/>
  <rect x="177.5" y="0.0" width="2" height="2" rx="0.3" fill="#2d2518"/>
  <rect x="182.5" y="0.0" width="2" height="2" rx="0.3" fill="#2d2518"/>
  <rect x="185.0" y="0.0" width="2" height="2" rx="0.3" fill="#2d2518"/>
  <rect x="0.0" y="2.5" width="2" height="2" rx="0.3" fill="#2d2518"/>
  <rect x="2.5" y="2.5" width="2" height="2" rx="0.3" fill="#2d2518"/>
  <rect x="12.5" y="2.5" width="2" height="2" rx="0.3" fill="#2d2518"/>
  <rect x="15.0" y="2.5" width="2" height="2" rx="0.3" fill="#2d2518"/>
  <rect x="20.0" y="2.5" width="2" height="2" rx="0.3" fill="#2d2518"/>
  <rect x="22.5" y="2.5" width="2" height="2" rx="0.3" fill="#2d2518"/>
  <rect x="32.5" y="2.5" width="2" height="2" rx="0.3" fill="#2d2518"/>
  <rect x="35.0" y="2.5" width="2" height="2" rx="0.3" fill="#2d2518"/>
  <rect x="40.0" y="2.5" width="2" height="2" rx="0.3" fill="#2d2518"/>
  <rect x="42.5" y="2.5" width="2" height="2" rx="0.3" fill="#2d2518"/>
  <rect x="52.5" y="2.5" width="2" height="2" rx="0.3" fill="#2d2518"/>
  <rect x="55.0" y="2.5" width="2" height="2" rx="0.3" fill="#2d2518"/>
  <rect x="60.0" y="2.5" width="2" height="2" rx="0.3" fill="#2d2518"/>
  <rect x="62.5" y="2.5" width="2" height="2" rx="0.3" fill="#2d2518"/>
  <rect x="65.0" y="2.5" width="2" height="2" rx="0.3" fill="#2d2518"/>
  <rect x="67.5" y="2.5" width="2" height="2" rx="0.3" fill="#2d2518"/>
  <rect x="77.5" y="2.5" width="2" height="2" rx="0.3" fill="#2d2518"/>
  <rect x="80.0" y="2.5" width="2" height="2" rx="0.3" fill="#2d2518"/>
  <rect x="85.0" y="2.5" width="2" height="2" rx="0.3" fill="#2d2518"/>
  <rect x="87.5" y="2.5" width="2" height="2" rx="0.3" fill="#2d2518"/>
  <rect x="105.0" y="2.5" width="2" height="2" rx="0.3" fill="#2d2518"/>
  <rect x="107.5" y="2.5" width="2" height="2" rx="0.3" fill="#2d2518"/>
  <rect x="125.0" y="2.5" width="2" height="2" rx="0.3" fill="#2d2518"/>
  <rect x="127.5" y="2.5" width="2" height="2" rx="0.3" fill="#2d2518"/>
  <rect x="155.0" y="2.5" width="2" height="2" rx="0.3" fill="#2d2518"/>
  <rect x="157.5" y="2.5" width="2" height="2" rx="0.3" fill="#2d2518"/>
  <rect x="160.0" y="2.5" width="2" height="2" rx="0.3" fill="#2d2518"/>
  <rect x="162.5" y="2.5" width="2" height="2" rx="0.3" fill="#2d2518"/>
  <rect x="170.0" y="2.5" width="2" height="2" rx="0.3" fill="#2d2518"/>
  <rect x="172.5" y="2.5" width="2" height="2" rx="0.3" fill="#2d2518"/>
  <rect x="175.0" y="2.5" width="2" height="2" rx="0.3" fill="#2d2518"/>
  <rect x="177.5" y="2.5" width="2" height="2" rx="0.3" fill="#2d2518"/>
  <rect x="182.5" y="2.5" width="2" height="2" rx="0.3" fill="#2d2518"/>
  <rect x="185.0" y="2.5" width="2" height="2" rx="0.3" fill="#2d2518"/>
  <rect x="0.0" y="5.0" width="2" height="2" rx="0.3" fill="#2d2518"/>
  <rect x="2.5" y="5.0" width="2" height="2" rx="0.3" fill="#2d2518"/>
  <rect x="5.0" y="5.0" width="2" height="2" rx="0.3" fill="#2d2518"/>
  <rect x="7.5" y="5.0" width="2" height="2" rx="0.3" fill="#2d2518"/>
  <rect x="10.0" y="5.0" width="2" height="2" rx="0.3" fill="#2d2518"/>
  <rect x="12.5" y="5.0" width="2" height="2" rx="0.3" fill="#2d2518"/>
  <rect x="15.0" y="5.0" width="2" height="2" rx="0.3" fill="#2d2518"/>
  <rect x="20.0" y="5.0" width="2" height="2" rx="0.3" fill="#2d2518"/>
  <rect x="22.5" y="5.0" width="2" height="2" rx="0.3" fill="#2d2518"/>
  <rect x="25.0" y="5.0" width="2" height="2" rx="0.3" fill="#2d2518"/>
  <rect x="27.5" y="5.0" width="2" height="2" rx="0.3" fill="#2d2518"/>
  <rect x="30.0" y="5.0" width="2" height="2" rx="0.3" fill="#2d2518"/>
  <rect x="32.5" y="5.0" width="2" height="2" rx="0.3" fill="#2d2518"/>
  <rect x="35.0" y="5.0" width="2" height="2" rx="0.3" fill="#2d2518"/>
  <rect x="40.0" y="5.0" width="2" height="2" rx="0.3" fill="#2d2518"/>
  <rect x="42.5" y="5.0" width="2" height="2" rx="0.3" fill="#2d2518"/>
  <rect x="45.0" y="5.0" width="2" height="2" rx="0.3" fill="#2d2518"/>
  <rect x="47.5" y="5.0" width="2" height="2" rx="0.3" fill="#2d2518"/>
  <rect x="50.0" y="5.0" width="2" height="2" rx="0.3" fill="#2d2518"/>
  <rect x="52.5" y="5.0" width="2" height="2" rx="0.3" fill="#2d2518"/>
  <rect x="60.0" y="5.0" width="2" height="2" rx="0.3" fill="#2d2518"/>
  <rect x="62.5" y="5.0" width="2" height="2" rx="0.3" fill="#2d2518"/>
  <rect x="67.5" y="5.0" width="2" height="2" rx="0.3" fill="#2d2518"/>
  <rect x="70.0" y="5.0" width="2" height="2" rx="0.3" fill="#2d2518"/>
  <rect x="77.5" y="5.0" width="2" height="2" rx="0.3" fill="#2d2518"/>
  <rect x="80.0" y="5.0" width="2" height="2" rx="0.3" fill="#2d2518"/>
  <rect x="85.0" y="5.0" width="2" height="2" rx="0.3" fill="#2d2518"/>
  <rect x="87.5" y="5.0" width="2" height="2" rx="0.3" fill="#2d2518"/>
  <rect x="90.0" y="5.0" width="2" height="2" rx="0.3" fill="#2d2518"/>
  <rect x="92.5" y="5.0" width="2" height="2" rx="0.3" fill="#2d2518"/>
  <rect x="95.0" y="5.0" width="2" height="2" rx="0.3" fill="#2d2518"/>
  <rect x="105.0" y="5.0" width="2" height="2" rx="0.3" fill="#2d2518"/>
  <rect x="107.5" y="5.0" width="2" height="2" rx="0.3" fill="#2d2518"/>
  <rect x="110.0" y="5.0" width="2" height="2" rx="0.3" fill="#2d2518"/>
  <rect x="112.5" y="5.0" width="2" height="2" rx="0.3" fill="#2d2518"/>
  <rect x="115.0" y="5.0" width="2" height="2" rx="0.3" fill="#2d2518"/>
  <rect x="117.5" y="5.0" width="2" height="2" rx="0.3" fill="#2d2518"/>
  <rect x="120.0" y="5.0" width="2" height="2" rx="0.3" fill="#2d2518"/>
  <rect x="125.0" y="5.0" width="2" height="2" rx="0.3" fill="#2d2518"/>
  <rect x="127.5" y="5.0" width="2" height="2" rx="0.3" fill="#2d2518"/>
  <rect x="130.0" y="5.0" width="2" height="2" rx="0.3" fill="#2d2518"/>
  <rect x="132.5" y="5.0" width="2" height="2" rx="0.3" fill="#2d2518"/>
  <rect x="135.0" y="5.0" width="2" height="2" rx="0.3" fill="#2d2518"/>
  <rect x="137.5" y="5.0" width="2" height="2" rx="0.3" fill="#2d2518"/>
  <rect x="140.0" y="5.0" width="2" height="2" rx="0.3" fill="#2d2518"/>
  <rect x="155.0" y="5.0" width="2" height="2" rx="0.3" fill="#2d2518"/>
  <rect x="157.5" y="5.0" width="2" height="2" rx="0.3" fill="#2d2518"/>
  <rect x="162.5" y="5.0" width="2" height="2" rx="0.3" fill="#2d2518"/>
  <rect x="165.0" y="5.0" width="2" height="2" rx="0.3" fill="#2d2518"/>
  <rect x="167.5" y="5.0" width="2" height="2" rx="0.3" fill="#2d2518"/>
  <rect x="170.0" y="5.0" width="2" height="2" rx="0.3" fill="#2d2518"/>
  <rect x="175.0" y="5.0" width="2" height="2" rx="0.3" fill="#2d2518"/>
  <rect x="177.5" y="5.0" width="2" height="2" rx="0.3" fill="#2d2518"/>
  <rect x="182.5" y="5.0" width="2" height="2" rx="0.3" fill="#2d2518"/>
  <rect x="185.0" y="5.0" width="2" height="2" rx="0.3" fill="#2d2518"/>
  <rect x="0.0" y="7.5" width="2" height="2" rx="0.3" fill="#2d2518"/>
  <rect x="2.5" y="7.5" width="2" height="2" rx="0.3" fill="#2d2518"/>
  <rect x="12.5" y="7.5" width="2" height="2" rx="0.3" fill="#2d2518"/>
  <rect x="15.0" y="7.5" width="2" height="2" rx="0.3" fill="#2d2518"/>
  <rect x="20.0" y="7.5" width="2" height="2" rx="0.3" fill="#2d2518"/>
  <rect x="22.5" y="7.5" width="2" height="2" rx="0.3" fill="#2d2518"/>
  <rect x="32.5" y="7.5" width="2" height="2" rx="0.3" fill="#2d2518"/>
  <rect x="35.0" y="7.5" width="2" height="2" rx="0.3" fill="#2d2518"/>
  <rect x="40.0" y="7.5" width="2" height="2" rx="0.3" fill="#2d2518"/>
  <rect x="42.5" y="7.5" width="2" height="2" rx="0.3" fill="#2d2518"/>
  <rect x="52.5" y="7.5" width="2" height="2" rx="0.3" fill="#2d2518"/>
  <rect x="55.0" y="7.5" width="2" height="2" rx="0.3" fill="#2d2518"/>
  <rect x="60.0" y="7.5" width="2" height="2" rx="0.3" fill="#2d2518"/>
  <rect x="62.5" y="7.5" width="2" height="2" rx="0.3" fill="#2d2518"/>
  <rect x="70.0" y="7.5" width="2" height="2" rx="0.3" fill="#2d2518"/>
  <rect x="72.5" y="7.5" width="2" height="2" rx="0.3" fill="#2d2518"/>
  <rect x="77.5" y="7.5" width="2" height="2" rx="0.3" fill="#2d2518"/>
  <rect x="80.0" y="7.5" width="2" height="2" rx="0.3" fill="#2d2518"/>
  <rect x="85.0" y="7.5" width="2" height="2" rx="0.3" fill="#2d2518"/>
  <rect x="87.5" y="7.5" width="2" height="2" rx="0.3" fill="#2d2518"/>
  <rect x="117.5" y="7.5" width="2" height="2" rx="0.3" fill="#2d2518"/>
  <rect x="120.0" y="7.5" width="2" height="2" rx="0.3" fill="#2d2518"/>
  <rect x="137.5" y="7.5" width="2" height="2" rx="0.3" fill="#2d2518"/>
  <rect x="140.0" y="7.5" width="2" height="2" rx="0.3" fill="#2d2518"/>
  <rect x="155.0" y="7.5" width="2" height="2" rx="0.3" fill="#2d2518"/>
  <rect x="157.5" y="7.5" width="2" height="2" rx="0.3" fill="#2d2518"/>
  <rect x="165.0" y="7.5" width="2" height="2" rx="0.3" fill="#2d2518"/>
  <rect x="167.5" y="7.5" width="2" height="2" rx="0.3" fill="#2d2518"/>
  <rect x="175.0" y="7.5" width="2" height="2" rx="0.3" fill="#2d2518"/>
  <rect x="177.5" y="7.5" width="2" height="2" rx="0.3" fill="#2d2518"/>
  <rect x="182.5" y="7.5" width="2" height="2" rx="0.3" fill="#2d2518"/>
  <rect x="185.0" y="7.5" width="2" height="2" rx="0.3" fill="#2d2518"/>
  <rect x="0.0" y="10.0" width="2" height="2" rx="0.3" fill="#2d2518"/>
  <rect x="2.5" y="10.0" width="2" height="2" rx="0.3" fill="#2d2518"/>
  <rect x="12.5" y="10.0" width="2" height="2" rx="0.3" fill="#2d2518"/>
  <rect x="15.0" y="10.0" width="2" height="2" rx="0.3" fill="#2d2518"/>
  <rect x="20.0" y="10.0" width="2" height="2" rx="0.3" fill="#2d2518"/>
  <rect x="22.5" y="10.0" width="2" height="2" rx="0.3" fill="#2d2518"/>
  <rect x="32.5" y="10.0" width="2" height="2" rx="0.3" fill="#2d2518"/>
  <rect x="35.0" y="10.0" width="2" height="2" rx="0.3" fill="#2d2518"/>
  <rect x="40.0" y="10.0" width="2" height="2" rx="0.3" fill="#2d2518"/>
  <rect x="42.5" y="10.0" width="2" height="2" rx="0.3" fill="#2d2518"/>
  <rect x="52.5" y="10.0" width="2" height="2" rx="0.3" fill="#2d2518"/>
  <rect x="55.0" y="10.0" width="2" height="2" rx="0.3" fill="#2d2518"/>
  <rect x="60.0" y="10.0" width="2" height="2" rx="0.3" fill="#2d2518"/>
  <rect x="62.5" y="10.0" width="2" height="2" rx="0.3" fill="#2d2518"/>
  <rect x="72.5" y="10.0" width="2" height="2" rx="0.3" fill="#2d2518"/>
  <rect x="75.0" y="10.0" width="2" height="2" rx="0.3" fill="#2d2518"/>
  <rect x="77.5" y="10.0" width="2" height="2" rx="0.3" fill="#2d2518"/>
  <rect x="80.0" y="10.0" width="2" height="2" rx="0.3" fill="#2d2518"/>
  <rect x="85.0" y="10.0" width="2" height="2" rx="0.3" fill="#2d2518"/>
  <rect x="87.5" y="10.0" width="2" height="2" rx="0.3" fill="#2d2518"/>
  <rect x="90.0" y="10.0" width="2" height="2" rx="0.3" fill="#2d2518"/>
  <rect x="92.5" y="10.0" width="2" height="2" rx="0.3" fill="#2d2518"/>
  <rect x="95.0" y="10.0" width="2" height="2" rx="0.3" fill="#2d2518"/>
  <rect x="97.5" y="10.0" width="2" height="2" rx="0.3" fill="#2d2518"/>
  <rect x="100.0" y="10.0" width="2" height="2" rx="0.3" fill="#2d2518"/>
  <rect x="105.0" y="10.0" width="2" height="2" rx="0.3" fill="#2d2518"/>
  <rect x="107.5" y="10.0" width="2" height="2" rx="0.3" fill="#2d2518"/>
  <rect x="110.0" y="10.0" width="2" height="2" rx="0.3" fill="#2d2518"/>
  <rect x="112.5" y="10.0" width="2" height="2" rx="0.3" fill="#2d2518"/>
  <rect x="115.0" y="10.0" width="2" height="2" rx="0.3" fill="#2d2518"/>
  <rect x="117.5" y="10.0" width="2" height="2" rx="0.3" fill="#2d2518"/>
  <rect x="120.0" y="10.0" width="2" height="2" rx="0.3" fill="#2d2518"/>
  <rect x="125.0" y="10.0" width="2" height="2" rx="0.3" fill="#2d2518"/>
  <rect x="127.5" y="10.0" width="2" height="2" rx="0.3" fill="#2d2518"/>
  <rect x="130.0" y="10.0" width="2" height="2" rx="0.3" fill="#2d2518"/>
  <rect x="132.5" y="10.0" width="2" height="2" rx="0.3" fill="#2d2518"/>
  <rect x="135.0" y="10.0" width="2" height="2" rx="0.3" fill="#2d2518"/>
  <rect x="137.5" y="10.0" width="2" height="2" rx="0.3" fill="#2d2518"/>
  <rect x="140.0" y="10.0" width="2" height="2" rx="0.3" fill="#2d2518"/>
  <rect x="155.0" y="10.0" width="2" height="2" rx="0.3" fill="#2d2518"/>
  <rect x="157.5" y="10.0" width="2" height="2" rx="0.3" fill="#2d2518"/>
  <rect x="175.0" y="10.0" width="2" height="2" rx="0.3" fill="#2d2518"/>
  <rect x="177.5" y="10.0" width="2" height="2" rx="0.3" fill="#2d2518"/>
  <rect x="182.5" y="10.0" width="2" height="2" rx="0.3" fill="#2d2518"/>
  <rect x="185.0" y="10.0" width="2" height="2" rx="0.3" fill="#2d2518"/>
  <rect x="187.5" y="10.0" width="2" height="2" rx="0.3" fill="#2d2518"/>
  <rect x="190.0" y="10.0" width="2" height="2" rx="0.3" fill="#2d2518"/>
  <rect x="192.5" y="10.0" width="2" height="2" rx="0.3" fill="#2d2518"/>
  <rect x="195.0" y="10.0" width="2" height="2" rx="0.3" fill="#2d2518"/>
  <rect x="197.5" y="10.0" width="2" height="2" rx="0.3" fill="#2d2518"/>
  <rect x="210.0" y="0.0" width="2" height="2" rx="0.3" fill="#da7b28"/>
  <rect x="212.5" y="0.0" width="2" height="2" rx="0.3" fill="#da7b28"/>
  <rect x="215.0" y="0.0" width="2" height="2" rx="0.3" fill="#da7b28"/>
  <rect x="217.5" y="0.0" width="2" height="2" rx="0.3" fill="#da7b28"/>
  <rect x="220.0" y="0.0" width="2" height="2" rx="0.3" fill="#da7b28"/>
  <rect x="207.5" y="2.5" width="2" height="2" rx="0.3" fill="#da7b28"/>
  <rect x="210.0" y="2.5" width="2" height="2" rx="0.3" fill="#da7b28"/>
  <rect x="215.0" y="2.5" width="2" height="2" rx="0.3" fill="#da7b28"/>
  <rect x="220.0" y="2.5" width="2" height="2" rx="0.3" fill="#da7b28"/>
  <rect x="222.5" y="2.5" width="2" height="2" rx="0.3" fill="#da7b28"/>
  <rect x="207.5" y="5.0" width="2" height="2" rx="0.3" fill="#da7b28"/>
  <rect x="210.0" y="5.0" width="2" height="2" rx="0.3" fill="#da7b28"/>
  <rect x="212.5" y="5.0" width="2" height="2" rx="0.3" fill="#da7b28"/>
  <rect x="215.0" y="5.0" width="2" height="2" rx="0.3" fill="#da7b28"/>
  <rect x="217.5" y="5.0" width="2" height="2" rx="0.3" fill="#da7b28"/>
  <rect x="220.0" y="5.0" width="2" height="2" rx="0.3" fill="#da7b28"/>
  <rect x="222.5" y="5.0" width="2" height="2" rx="0.3" fill="#da7b28"/>
  <rect x="210.0" y="7.5" width="2" height="2" rx="0.3" fill="#da7b28"/>
  <rect x="220.0" y="7.5" width="2" height="2" rx="0.3" fill="#da7b28"/>
  <rect x="210.0" y="10.0" width="2" height="2" rx="0.3" fill="#da7b28"/>
  <rect x="212.5" y="10.0" width="2" height="2" rx="0.3" fill="#da7b28"/>
  <rect x="215.0" y="10.0" width="2" height="2" rx="0.3" fill="#da7b28"/>
  <rect x="217.5" y="10.0" width="2" height="2" rx="0.3" fill="#da7b28"/>
  <rect x="220.0" y="10.0" width="2" height="2" rx="0.3" fill="#da7b28"/>
  <rect x="210.0" y="12.5" width="2" height="2" rx="0.3" fill="#da7b28"/>
  <rect x="220.0" y="12.5" width="2" height="2" rx="0.3" fill="#da7b28"/>
</svg>